<svg xmlns="http://www.w3.org/2000/svg" width="1394.74" height="325.374" viewBox="0 0 1394.74 325.374"><defs><style>.a{fill:#272322;}</style></defs><g transform="translate(-153 -664)"><path class="a" d="M542.478,459.881H427.909L665.385,224.43V549.551h-86.84l.339-80.633V424.2Z" transform="translate(-180.986 439.57)"/><path class="a" d="M416.38,471.984l111.45.232-77.71,72.438-111.7.015Z" transform="translate(-185.424 444.705)"/><path class="a" d="M200.616,0H148.824V-18.72H148.2Q141.648-6.24,127.452-.156a74.861,74.861,0,0,1-29.8,6.084q-39,0-63.024-26.52T10.608-86.736q0-38.688,24.336-65.52t62.712-26.832A72.655,72.655,0,0,1,127.14-173a44.3,44.3,0,0,1,21.06,18.252h.624V-173.16h51.792ZM148.824-86.736q0-19.032-12.324-31.512t-31.356-12.48q-18.72,0-30.732,12.948T62.4-86.112A42.622,42.622,0,0,0,74.88-55.224a41.068,41.068,0,0,0,30.576,12.792q18.72,0,31.044-12.792T148.824-86.736Zm202.488,33.7q0,27.768-20.9,43.368T280.8,5.928q-28.392,0-48.048-14.976T210.288-51.48h51.48q1.248,7.8,6.552,11.856a20.937,20.937,0,0,0,13.1,4.056,22.945,22.945,0,0,0,12.324-3.588q5.772-3.588,5.772-9.828a13.812,13.812,0,0,0-.78-4.68,13.286,13.286,0,0,0-2.34-4.056,29.157,29.157,0,0,0-2.964-3.12,19.858,19.858,0,0,0-4.212-2.652q-2.808-1.4-4.212-2.028t-4.68-1.872q-3.276-1.248-4.212-1.56-14.976-4.992-22.464-7.8-41.184-14.976-41.184-45.24,0-25.9,20.124-41.5t46.956-15.6q27.144,0,45.552,14.04t20.9,40.56H295.152q-.312-13.1-16.224-13.1a17.45,17.45,0,0,0-10.14,3.12,9.735,9.735,0,0,0-4.524,8.424q0,6.24,6.4,10.608a48.571,48.571,0,0,0,16.068,6.708,211.5,211.5,0,0,1,21.06,6.4,156.6,156.6,0,0,1,21.06,9.2,42.237,42.237,0,0,1,16.068,15.444Q351.312-67.392,351.312-53.04Zm240.24-99.528q26.832,26.208,26.832,65.832T591.708-20.9Q565.032,5.3,525.1,5.3T458.484-20.9q-26.676-26.208-26.676-65.832t26.676-65.832q26.676-26.208,66.612-26.208T591.552-152.568Zm-36.816,96.72a44.534,44.534,0,0,0,11.856-30.888,43.977,43.977,0,0,0-11.856-30.732,38.517,38.517,0,0,0-29.64-12.948,38.517,38.517,0,0,0-29.64,12.948A43.977,43.977,0,0,0,483.6-86.736,43.977,43.977,0,0,0,495.456-56,38.517,38.517,0,0,0,525.1-43.056Q542.88-43.056,554.736-55.848ZM791.232,0H739.44V-94.536q0-17.16-5.616-26.52t-21.528-9.36q-16.848,0-23.244,9.516t-6.4,26.676V0H630.864V-173.16h48.36v18.408h.624q14.976-24.336,47.112-24.336a76.751,76.751,0,0,1,23.712,4.056q12.48,4.056,20.592,10.92,19.968,16.536,19.968,55.848ZM984.048-84.552A70.126,70.126,0,0,1,982.8-70.824H853.008q2.184,14.976,13.572,23.868t26.988,8.892q18.72,0,31.512-16.224h53.04Q966.576-27.456,944.268-10.92a82.957,82.957,0,0,1-50.7,16.536q-38.064,0-64.9-26.832t-26.832-64.9q0-38.064,26.52-65.52t64.272-27.456q39.312,0,65.364,27.456T984.048-84.552Zm-51.792-21.216a35.659,35.659,0,0,0-14.04-21.684,41.787,41.787,0,0,0-25.272-7.956,41.787,41.787,0,0,0-25.272,7.956,35.659,35.659,0,0,0-14.04,21.684Z" transform="translate(563.692 982.123)"/></g></svg>